<?xml version="1.0" standalone="no"?>
<svg xmlns:xlink="http://www.w3.org/1999/xlink" id="wave" style="transform:rotate(180deg); transition: 0.3s" viewBox="0 0 1440 490" version="1.1" xmlns="http://www.w3.org/2000/svg"><defs><linearGradient id="sw-gradient-0" x1="0" x2="0" y1="1" y2="0"><stop stop-color="rgba(47, 87, 239, 0.03)" offset="0%"/><stop stop-color="rgba(185, 102, 231, 0.06)" offset="100%"/></linearGradient></defs><path style="transform:translate(0, 0px); opacity:1" fill="url(#sw-gradient-0)" d="M0,294L80,294C160,294,320,294,480,253.2C640,212,800,131,960,155.2C1120,180,1280,310,1440,367.5C1600,425,1760,408,1920,383.8C2080,359,2240,327,2400,326.7C2560,327,2720,359,2880,343C3040,327,3200,261,3360,212.3C3520,163,3680,131,3840,130.7C4000,131,4160,163,4320,196C4480,229,4640,261,4800,245C4960,229,5120,163,5280,163.3C5440,163,5600,229,5760,261.3C5920,294,6080,294,6240,269.5C6400,245,6560,196,6720,220.5C6880,245,7040,343,7200,359.3C7360,376,7520,310,7680,261.3C7840,212,8000,180,8160,179.7C8320,180,8480,212,8640,261.3C8800,310,8960,376,9120,408.3C9280,441,9440,441,9600,375.7C9760,310,9920,180,10080,138.8C10240,98,10400,147,10560,204.2C10720,261,10880,327,11040,334.8C11200,343,11360,294,11440,269.5L11520,245L11520,490L11440,490C11360,490,11200,490,11040,490C10880,490,10720,490,10560,490C10400,490,10240,490,10080,490C9920,490,9760,490,9600,490C9440,490,9280,490,9120,490C8960,490,8800,490,8640,490C8480,490,8320,490,8160,490C8000,490,7840,490,7680,490C7520,490,7360,490,7200,490C7040,490,6880,490,6720,490C6560,490,6400,490,6240,490C6080,490,5920,490,5760,490C5600,490,5440,490,5280,490C5120,490,4960,490,4800,490C4640,490,4480,490,4320,490C4160,490,4000,490,3840,490C3680,490,3520,490,3360,490C3200,490,3040,490,2880,490C2720,490,2560,490,2400,490C2240,490,2080,490,1920,490C1760,490,1600,490,1440,490C1280,490,1120,490,960,490C800,490,640,490,480,490C320,490,160,490,80,490L0,490Z"/><defs><linearGradient id="sw-gradient-1" x1="0" x2="0" y1="1" y2="0"><stop stop-color="rgba(185, 102, 231, 0.1)" offset="0%"/><stop stop-color="rgba(47, 87, 239, 0.12156862745098039)" offset="100%"/></linearGradient></defs><path style="transform:translate(0, 50px); opacity:0.9" fill="url(#sw-gradient-1)" d="M0,49L80,73.5C160,98,320,147,480,163.3C640,180,800,163,960,171.5C1120,180,1280,212,1440,253.2C1600,294,1760,343,1920,359.3C2080,376,2240,359,2400,294C2560,229,2720,114,2880,122.5C3040,131,3200,261,3360,302.2C3520,343,3680,294,3840,285.8C4000,278,4160,310,4320,318.5C4480,327,4640,310,4800,318.5C4960,327,5120,359,5280,343C5440,327,5600,261,5760,261.3C5920,261,6080,327,6240,334.8C6400,343,6560,294,6720,277.7C6880,261,7040,278,7200,245C7360,212,7520,131,7680,98C7840,65,8000,82,8160,114.3C8320,147,8480,196,8640,253.2C8800,310,8960,376,9120,334.8C9280,294,9440,147,9600,138.8C9760,131,9920,261,10080,261.3C10240,261,10400,131,10560,122.5C10720,114,10880,229,11040,236.8C11200,245,11360,147,11440,98L11520,49L11520,490L11440,490C11360,490,11200,490,11040,490C10880,490,10720,490,10560,490C10400,490,10240,490,10080,490C9920,490,9760,490,9600,490C9440,490,9280,490,9120,490C8960,490,8800,490,8640,490C8480,490,8320,490,8160,490C8000,490,7840,490,7680,490C7520,490,7360,490,7200,490C7040,490,6880,490,6720,490C6560,490,6400,490,6240,490C6080,490,5920,490,5760,490C5600,490,5440,490,5280,490C5120,490,4960,490,4800,490C4640,490,4480,490,4320,490C4160,490,4000,490,3840,490C3680,490,3520,490,3360,490C3200,490,3040,490,2880,490C2720,490,2560,490,2400,490C2240,490,2080,490,1920,490C1760,490,1600,490,1440,490C1280,490,1120,490,960,490C800,490,640,490,480,490C320,490,160,490,80,490L0,490Z"/></svg>