<?xml version="1.0" standalone="no"?>
<svg xmlns:xlink="http://www.w3.org/1999/xlink" id="wave" style="transform:rotate(180deg); transition: 0.3s" viewBox="0 0 1440 490" version="1.1" xmlns="http://www.w3.org/2000/svg"><defs><linearGradient id="sw-gradient-0" x1="0" x2="0" y1="1" y2="0"><stop stop-color="rgba(238.997, 232.595, 255, 0.4196078431372549)" offset="0%"/><stop stop-color="rgba(237, 233, 251, 0.48)" offset="100%"/></linearGradient></defs><path style="transform:translate(0, 0px); opacity:1" fill="url(#sw-gradient-0)" d="M0,98L120,130.7C240,163,480,229,720,212.3C960,196,1200,98,1440,65.3C1680,33,1920,65,2160,65.3C2400,65,2640,33,2880,89.8C3120,147,3360,294,3600,326.7C3840,359,4080,278,4320,204.2C4560,131,4800,65,5040,40.8C5280,16,5520,33,5760,32.7C6000,33,6240,16,6480,49C6720,82,6960,163,7200,220.5C7440,278,7680,310,7920,326.7C8160,343,8400,343,8640,302.2C8880,261,9120,180,9360,130.7C9600,82,9840,65,10080,57.2C10320,49,10560,49,10800,65.3C11040,82,11280,114,11520,130.7C11760,147,12000,147,12240,147C12480,147,12720,147,12960,187.8C13200,229,13440,310,13680,343C13920,376,14160,359,14400,367.5C14640,376,14880,408,15120,424.7C15360,441,15600,441,15840,424.7C16080,408,16320,376,16560,359.3C16800,343,17040,343,17160,343L17280,343L17280,490L17160,490C17040,490,16800,490,16560,490C16320,490,16080,490,15840,490C15600,490,15360,490,15120,490C14880,490,14640,490,14400,490C14160,490,13920,490,13680,490C13440,490,13200,490,12960,490C12720,490,12480,490,12240,490C12000,490,11760,490,11520,490C11280,490,11040,490,10800,490C10560,490,10320,490,10080,490C9840,490,9600,490,9360,490C9120,490,8880,490,8640,490C8400,490,8160,490,7920,490C7680,490,7440,490,7200,490C6960,490,6720,490,6480,490C6240,490,6000,490,5760,490C5520,490,5280,490,5040,490C4800,490,4560,490,4320,490C4080,490,3840,490,3600,490C3360,490,3120,490,2880,490C2640,490,2400,490,2160,490C1920,490,1680,490,1440,490C1200,490,960,490,720,490C480,490,240,490,120,490L0,490Z"/><defs><linearGradient id="sw-gradient-1" x1="0" x2="0" y1="1" y2="0"><stop stop-color="rgba(228.274, 226.562, 232.552, 0.4196078431372549)" offset="0%"/><stop stop-color="rgba(247.223, 244.113, 255, 0.4196078431372549)" offset="100%"/></linearGradient></defs><path style="transform:translate(0, 50px); opacity:0.9" fill="url(#sw-gradient-1)" d="M0,196L120,228.7C240,261,480,327,720,294C960,261,1200,131,1440,65.3C1680,0,1920,0,2160,8.2C2400,16,2640,33,2880,40.8C3120,49,3360,49,3600,65.3C3840,82,4080,114,4320,114.3C4560,114,4800,82,5040,65.3C5280,49,5520,49,5760,114.3C6000,180,6240,310,6480,318.5C6720,327,6960,212,7200,204.2C7440,196,7680,294,7920,334.8C8160,376,8400,359,8640,359.3C8880,359,9120,376,9360,318.5C9600,261,9840,131,10080,138.8C10320,147,10560,294,10800,334.8C11040,376,11280,310,11520,302.2C11760,294,12000,343,12240,351.2C12480,359,12720,327,12960,334.8C13200,343,13440,392,13680,416.5C13920,441,14160,441,14400,375.7C14640,310,14880,180,15120,171.5C15360,163,15600,278,15840,310.3C16080,343,16320,294,16560,261.3C16800,229,17040,212,17160,204.2L17280,196L17280,490L17160,490C17040,490,16800,490,16560,490C16320,490,16080,490,15840,490C15600,490,15360,490,15120,490C14880,490,14640,490,14400,490C14160,490,13920,490,13680,490C13440,490,13200,490,12960,490C12720,490,12480,490,12240,490C12000,490,11760,490,11520,490C11280,490,11040,490,10800,490C10560,490,10320,490,10080,490C9840,490,9600,490,9360,490C9120,490,8880,490,8640,490C8400,490,8160,490,7920,490C7680,490,7440,490,7200,490C6960,490,6720,490,6480,490C6240,490,6000,490,5760,490C5520,490,5280,490,5040,490C4800,490,4560,490,4320,490C4080,490,3840,490,3600,490C3360,490,3120,490,2880,490C2640,490,2400,490,2160,490C1920,490,1680,490,1440,490C1200,490,960,490,720,490C480,490,240,490,120,490L0,490Z"/></svg>